<svg width="53" height="53" viewBox="0 0 53 53" fill="none" xmlns="http://www.w3.org/2000/svg">
<path d="M48.0312 1.65625H4.96875C3.14687 1.65625 1.65625 3.14687 1.65625 4.96875V48.0312C1.65625 49.8531 3.14687 51.3438 4.96875 51.3438H48.0312C49.8531 51.3438 51.3438 49.8531 51.3438 48.0312V4.96875C51.3438 3.14687 49.8531 1.65625 48.0312 1.65625Z" fill="#427687"/>
<path d="M50.3914 2.60859C49.7703 2.02891 48.9422 1.65625 48.0312 1.65625H4.96875C3.14687 1.65625 1.65625 3.14687 1.65625 4.96875V48.0312C1.65625 48.9422 2.02891 49.7703 2.60859 50.3914L9.56484 43.4352H41.0336C42.4 43.4352 43.4766 42.3172 43.4766 40.9922V9.52344L50.3914 2.60859Z" fill="#8CAFBF"/>
<path opacity="0.5" d="M16.4383 5.34142C16.4383 4.38908 15.7758 4.09923 11.9664 4.22345C8.7781 4.34767 7.20466 4.72033 6.25232 5.8797C5.29998 7.03908 5.05154 9.39923 5.01013 12.2149C5.01013 14.2024 5.01013 16.0656 6.04529 16.0656C7.4531 16.0656 7.4531 12.7945 8.61248 10.9727C10.8484 7.37033 16.4383 6.58361 16.4383 5.34142Z" fill="#B4E1ED"/>
</svg>
